<?xml version="1.0" encoding="iso-8859-1"?>
<!-- Generator: Adobe Illustrator 16.0.0, SVG Export Plug-In . SVG Version: 6.00 Build 0)  -->
<!DOCTYPE svg PUBLIC "-//W3C//DTD SVG 1.1//EN" "http://www.w3.org/Graphics/SVG/1.1/DTD/svg11.dtd">
<svg xmlns="http://www.w3.org/2000/svg" xmlns:xlink="http://www.w3.org/1999/xlink" version="1.1" id="Capa_1" x="0px" y="0px" width="512px" height="512px" viewBox="0 0 353.661 353.662" style="enable-background:new 0 0 353.661 353.662;" xml:space="preserve">
<g>
	<g id="Artwork_4_">
		<g>
			<path d="M98.287,151.526l13.351-3.196c-3.424-17.088-4.811-30.39-25.041-37.306c-55.372,25.457-90.056,59.728-86.322,77.024     c0.397,1.845,1.299,3.549,2.571,5.142C24.2,174.525,62.149,159.552,98.287,151.526z" fill="#FFFFFF"/>
			<path d="M187.268,142.675c-0.011,0.025-0.02,0.043-0.029,0.068l15.605,1.081c10.528,0.724,21.113,1.924,31.466,3.553     c18.771,2.954,49.4,11.376,55.199,13.33c36.582-16.219,58.396-33.526,55.488-47.005c-3.404-15.786-41.802-31.271-94.819-34.134     c8.398,18.921,5.243,40.661,0.457,52.803c-6.522,16.544,6.69-40.816-37.532-52.701c-9.802,0.554-19.889,1.547-30.164,3.026     C195.99,102.997,192.672,128.966,187.268,142.675z" fill="#FFFFFF"/>
			<path d="M125.349,146.572l5.039-0.646c12.045-1.543,24.245-2.504,36.266-2.85l10.156-0.608     c1.853-25.896-4.983-44.913-27.922-53.16c-11.598,2.858-22.761,6.236-33.393,9.999     C125.836,114.165,127.241,132.624,125.349,146.572z" fill="#FFFFFF"/>
			<path d="M268.169,165.347c4.221,20.266-3.446,40.854-10.688,51.712c-9.862,14.795,6.617-42.837-25.575-59.43     c-9.699-1.524-19.768-2.679-30.124-3.399c8.479,22.598-0.241,47.28-8.413,59.542c-9.87,14.798,8.625-39.884-26.267-60.257     c-11.94,0.35-23.567,1.296-34.752,2.734c9.003,21.553,2.213,45.87-4.894,58.366c-8.783,15.459,6.537-31.727-25.824-53.004     C42.138,174.82,1.007,207.009,1.007,224.705c0,24.515,78.942,49.389,176.329,49.389c97.383,0,176.325-24.874,176.325-49.389     C353.661,208.552,319.393,179.324,268.169,165.347z" fill="#FFFFFF"/>
		</g>
	</g>
</g>
<g>
</g>
<g>
</g>
<g>
</g>
<g>
</g>
<g>
</g>
<g>
</g>
<g>
</g>
<g>
</g>
<g>
</g>
<g>
</g>
<g>
</g>
<g>
</g>
<g>
</g>
<g>
</g>
<g>
</g>
</svg>
