<?xml version="1.0"?>
<svg xmlns="http://www.w3.org/2000/svg" height="512px" viewBox="-43 1 511 511.99989" width="512px"><path d="m250.9375 164.171875h-17.132812c4.214843-30.824219 21.277343-58.660156 47.4375-76.390625l9.914062-6.71875-16.84375-24.855469-9.914062 6.71875c-12.257813 8.308594-22.941407 18.363281-31.820313 29.707031-2.621094-19.925781-9.742187-44.949218-27.996094-63.210937-34.570312-34.582031-93.40625-29.230469-95.894531-28.984375l-12.261719 1.207031-1.207031 12.261719c-.246094 2.488281-5.597656 61.335938 28.96875 95.917969 25.773438 25.777343 65.011719 29.363281 84.359375 29.417969-2.398437 8.085937-4.074219 16.425781-4.984375 24.929687h-29.148438c-95.894531 0-173.914062 78.015625-173.914062 173.914063 0 95.898437 78.019531 173.914062 173.914062 173.914062h76.523438c95.898438 0 173.914062-78.019531 173.914062-173.914062 0-95.898438-78.015624-173.914063-173.914062-173.914063zm-148.742188 159.339844h-30.691406v-30.695313h30.691406zm16.152344-81.769531h30.691406v30.695312h-30.691406zm46.039063 92.277343h-30.695313v-30.691406h30.695313zm0 0" fill="#FFFFFF"/></svg>
