<?xml version="1.0" encoding="utf-8"?>
<!-- Generator: Adobe Illustrator 23.0.1, SVG Export Plug-In . SVG Version: 6.00 Build 0)  -->
<svg version="1.1" id="Layer_1" xmlns="http://www.w3.org/2000/svg" xmlns:xlink="http://www.w3.org/1999/xlink" x="0px" y="0px"
	 viewBox="0 0 39.8 23.8" style="enable-background:new 0 0 39.8 23.8;" xml:space="preserve">
<g fill="#fff">
	<path d="M1.6,4h24.3c0.9,0,1.6-0.9,1.6-2s-0.7-2-1.6-2H1.6C0.7,0,0,0.9,0,2S0.7,4,1.6,4z"/>
	<path d="M37.8,10H8.3c-1.1,0-2,0.9-2,2s0.9,2,2,2h29.5c1.1,0,2-0.9,2-2S38.9,10,37.8,10z"/>
	<path d="M25.9,19.8H1.6c-0.9,0-1.6,0.9-1.6,2s0.7,2,1.6,2h24.3c0.9,0,1.6-0.9,1.6-2S26.8,19.8,25.9,19.8z"/>
</g>
</svg>
