<?xml version="1.0" encoding="iso-8859-1"?>
<!-- Generator: Adobe Illustrator 18.0.0, SVG Export Plug-In . SVG Version: 6.00 Build 0)  -->
<!DOCTYPE svg PUBLIC "-//W3C//DTD SVG 1.1//EN" "http://www.w3.org/Graphics/SVG/1.1/DTD/svg11.dtd">
<svg xmlns="http://www.w3.org/2000/svg" xmlns:xlink="http://www.w3.org/1999/xlink" version="1.1" id="Capa_1" x="0px" y="0px" viewBox="0 0 57.569 57.569" style="enable-background:new 0 0 57.569 57.569;" xml:space="preserve" width="512px" height="512px">
<g>
	<path d="M10.553,27.865c0-1.647,0.488-3.231,1.395-4.572c-0.298-0.962-0.452-1.97-0.452-2.969c0-4.308,2.715-8.061,6.651-9.47   c0.351-3.212,2.411-5.976,5.314-7.299c-1.492-2.415-3.847-3.831-6.018-3.479c-1.569,0.255-2.869,1.321-3.633,2.93   c-1.375-0.632-2.805-0.737-4.059-0.296C8.394,3.188,7.34,4.21,6.703,5.665c-0.845,1.927-0.846,4.407-0.029,6.765   c-1.101,0.756-1.924,1.867-2.405,3.26c-0.809,2.339-0.539,5.161,0.74,7.746c0.14,0.282,0.293,0.562,0.46,0.837   c-1.201,0.781-2.1,1.939-2.582,3.352c-0.766,2.242-0.427,4.884,0.93,7.246c0.623,1.085,1.448,2.068,2.409,2.876   c-0.321,1.344-0.078,2.821,0.704,4.158c1.093,1.865,3.062,3.13,5.166,3.343c2.818,5.296,6.224,7.998,11.095,10.339   c-5.787-6.841-9.005-12.507-9.186-21.051C11.875,33.015,10.553,30.516,10.553,27.865z" fill="#FFFFFF"/>
	<path d="M55.083,20.053c0.08-3.894-2.207-7.397-5.751-8.911c-0.517-3.323-3.195-5.92-6.523-6.36   c-0.03-0.331-0.093-0.661-0.188-0.987c-0.587-2.004-2.354-3.513-4.395-3.755c-1.335-0.159-2.597,0.176-3.64,0.909   c-0.93-0.615-2.013-0.947-3.123-0.947c-2.859,0-5.235,2.112-5.649,4.858c-3.269,0.66-5.72,3.573-5.72,6.981   c0,0.183,0.008,0.366,0.022,0.552c-3.79,0.682-6.62,3.975-6.62,7.932c0,1.144,0.247,2.278,0.721,3.321   c-1.065,1.139-1.663,2.638-1.663,4.22c0,2.364,1.358,4.508,3.445,5.54c-0.092,9.063,3.209,14.565,9.649,21.979l0.363,0.413   l0.066,0.075c0.976,1.095,2.381,1.697,3.958,1.697c0.273,0,0.542-0.023,0.807-0.057L30.5,56.849   c-2.149-5.111-3.468-9.649-4.204-13.683c-2.773-0.854-3.972-3.07-4.025-3.172c-0.258-0.488-0.069-1.094,0.419-1.351   c0.485-0.257,1.088-0.071,1.349,0.414c0.037,0.069,0.619,1.093,1.892,1.791c-0.348-2.617-0.449-5.007-0.348-7.161   c-0.012-0.109-0.007-0.216,0.018-0.326c0.174-3.079,0.736-5.685,1.478-7.869c-3.369-2.009-3.785-5.749-3.495-7.564   c0.087-0.545,0.601-0.922,1.145-0.83c0.545,0.087,0.916,0.598,0.831,1.142c-0.025,0.161-0.474,3.478,2.254,5.344   c0.136-0.315,0.273-0.628,0.415-0.921c2.63-5.428,6.389-8.129,7.844-9.02c-0.003-2.003,1.31-3.743,1.372-3.824   c0.335-0.439,0.965-0.521,1.401-0.187c0.438,0.335,0.522,0.962,0.188,1.4c-0.223,0.296-0.661,1.033-0.857,1.844   c2.303-0.261,4.551,1.039,4.665,1.107c0.477,0.281,0.634,0.894,0.354,1.369c-0.187,0.316-0.521,0.492-0.862,0.492   c-0.173,0-0.347-0.044-0.506-0.138c-0.697-0.407-2.819-1.306-4.273-0.61c-0.253,0.129-1.955,1.045-3.892,3.066   c3.967-0.289,6.726,0.889,6.865,0.949c0.505,0.223,0.735,0.813,0.514,1.318c-0.165,0.374-0.532,0.598-0.917,0.598   c-0.133,0-0.269-0.026-0.399-0.084c-0.075-0.032-3.458-1.434-7.942-0.501c-0.898,1.263-1.762,2.777-2.478,4.581   c-0.002,0.132-0.029,0.266-0.087,0.394c-0.038,0.085-0.089,0.159-0.145,0.227c-0.569,1.559-1.028,3.312-1.304,5.292   c2.261-1.418,5.113-1.48,5.276-1.482c0.004,0,0.008,0,0.012,0c0.546,0,0.991,0.438,0.999,0.986   c0.008,0.552-0.434,1.005-0.985,1.014c-0.042,0.001-4.157,0.097-5.557,2.484c-0.098,2.439,0.071,5.162,0.591,8.192   c0.005,0.023,0.008,0.046,0.011,0.07c0.7,4.039,2.016,8.61,4.197,13.799l0.476,0.918c0.734-0.37,1.366-0.882,1.817-1.512   c0.753-1.052,0.931-2.328,0.499-3.593c-1.808-5.305-1.752-9.353,0.166-12.033c2.486-3.475,7.664-3.994,10.528-3.994   c1.475,0,2.488,0.136,2.498,0.138l1.028,0.14l0.103-1.032c0.014-0.136,0.309-3.358-1.571-5.547   c-0.109-0.127-0.224-0.247-0.342-0.362c0.531-0.119,1.056-0.288,1.572-0.506C52.652,27.113,55.006,23.751,55.083,20.053z" fill="#FFFFFF"/>
</g>
<g>
</g>
<g>
</g>
<g>
</g>
<g>
</g>
<g>
</g>
<g>
</g>
<g>
</g>
<g>
</g>
<g>
</g>
<g>
</g>
<g>
</g>
<g>
</g>
<g>
</g>
<g>
</g>
<g>
</g>
</svg>
